<svg width="176" height="25" viewBox="0 0 176 25" fill="none" xmlns="http://www.w3.org/2000/svg">
<path d="M12.6875 19.9358H6.42188L5.20312 24.5921H0.34375L7.45312 1.84207H11.6562L18.8125 24.5921H13.9062L12.6875 19.9358ZM7.42188 16.1077H11.6719L9.54688 7.99832L7.42188 16.1077ZM26.3438 18.0764L25.1562 19.4046V24.5921H20.7344V0.592072H25.1562V13.5608L25.7031 12.7483L28.7656 7.68582H34.0312L29.125 14.6546L34.5 24.5921H29.4375L26.3438 18.0764ZM44.0781 24.5921C43.9531 24.3317 43.8281 23.8942 43.7031 23.2796C42.9115 24.3629 41.8385 24.9046 40.4844 24.9046C39.0677 24.9046 37.8906 24.4358 36.9531 23.4983C36.026 22.5608 35.5625 21.3473 35.5625 19.8577C35.5625 18.0869 36.125 16.7171 37.25 15.7483C38.3854 14.7796 40.0156 14.2848 42.1406 14.2639H43.4844V12.9046C43.4844 12.1442 43.3542 11.6077 43.0938 11.2952C42.8333 10.9827 42.4531 10.8264 41.9531 10.8264C40.849 10.8264 40.2969 11.4723 40.2969 12.7639H35.875C35.875 11.2014 36.4583 9.91499 37.625 8.90457C38.8021 7.88374 40.2865 7.37332 42.0781 7.37332C43.9323 7.37332 45.3646 7.8577 46.375 8.82645C47.3958 9.78478 47.9062 11.1598 47.9062 12.9514V20.9046C47.9271 22.3629 48.1354 23.5035 48.5312 24.3264V24.5921H44.0781ZM41.4688 21.4358C41.9583 21.4358 42.375 21.3369 42.7188 21.1389C43.0625 20.941 43.3177 20.7067 43.4844 20.4358V16.9202H42.4219C41.6719 16.9202 41.0781 17.1598 40.6406 17.6389C40.2135 18.1181 40 18.7587 40 19.5608C40 20.8108 40.4896 21.4358 41.4688 21.4358ZM50.5156 15.6233C50.5156 12.8525 50.9844 10.7848 51.9219 9.4202C52.8594 8.05561 54.224 7.37332 56.0156 7.37332C57.3177 7.37332 58.401 7.93582 59.2656 9.06082V0.592072H63.7188V24.5921H59.7031L59.5 22.8733C58.5938 24.2275 57.4271 24.9046 56 24.9046C54.2292 24.9046 52.875 24.2275 51.9375 22.8733C51.0104 21.5192 50.5365 19.5296 50.5156 16.9046V15.6233ZM54.9531 16.7327C54.9531 18.3994 55.1302 19.566 55.4844 20.2327C55.8385 20.8889 56.4375 21.2171 57.2812 21.2171C58.1562 21.2171 58.8177 20.8264 59.2656 20.0452V12.3264C58.8281 11.4931 58.1719 11.0764 57.2969 11.0764C56.4844 11.0764 55.8906 11.4046 55.5156 12.0608C55.1406 12.7171 54.9531 13.8837 54.9531 15.5608V16.7327ZM73.8125 24.9046C71.5417 24.9046 69.7708 24.2275 68.5 22.8733C67.2292 21.5192 66.5938 19.5817 66.5938 17.0608V15.7171C66.5938 13.0504 67.1771 10.9931 68.3438 9.5452C69.5104 8.09728 71.1823 7.37332 73.3594 7.37332C75.4844 7.37332 77.0833 8.05561 78.1562 9.4202C79.2292 10.7744 79.776 12.7848 79.7969 15.4514V17.6233H71C71.0625 18.8733 71.3385 19.79 71.8281 20.3733C72.3177 20.9462 73.0729 21.2327 74.0938 21.2327C75.5729 21.2327 76.8073 20.7275 77.7969 19.7171L79.5312 22.3889C78.9896 23.1389 78.2031 23.7483 77.1719 24.2171C76.1406 24.6754 75.0208 24.9046 73.8125 24.9046ZM71.0312 14.5296H75.4531V14.1233C75.4323 13.1129 75.2656 12.3473 74.9531 11.8264C74.6406 11.3056 74.099 11.0452 73.3281 11.0452C72.5573 11.0452 71.9948 11.3212 71.6406 11.8733C71.2969 12.4254 71.0938 13.3108 71.0312 14.5296ZM86.4531 7.68582L86.5781 9.24832C87.5677 7.99832 88.875 7.37332 90.5 7.37332C92.1875 7.37332 93.3802 8.13374 94.0781 9.65457C95.0469 8.13374 96.4271 7.37332 98.2188 7.37332C101.177 7.37332 102.693 9.4202 102.766 13.5139V24.5921H98.3438V13.7952C98.3438 12.816 98.2083 12.1181 97.9375 11.7014C97.6667 11.2848 97.2083 11.0764 96.5625 11.0764C95.7396 11.0764 95.125 11.5817 94.7188 12.5921L94.75 13.1233V24.5921H90.3281V13.8264C90.3281 12.8577 90.1979 12.1598 89.9375 11.7327C89.6771 11.2952 89.2135 11.0764 88.5469 11.0764C87.7865 11.0764 87.1823 11.4879 86.7344 12.3108V24.5921H82.3125V7.68582H86.4531Z" fill="#252420"/>
<path d="M110.094 7.68582L110.219 9.3577C111.219 8.03478 112.526 7.37332 114.141 7.37332C117.047 7.37332 118.542 9.40978 118.625 13.4827V24.5921H114.188V13.8108C114.188 12.8525 114.042 12.1598 113.75 11.7327C113.469 11.2952 112.969 11.0764 112.25 11.0764C111.448 11.0764 110.823 11.4879 110.375 12.3108V24.5921H105.938V7.68582H110.094ZM129.828 24.5921C129.703 24.3317 129.578 23.8942 129.453 23.2796C128.661 24.3629 127.589 24.9046 126.234 24.9046C124.818 24.9046 123.641 24.4358 122.703 23.4983C121.776 22.5608 121.312 21.3473 121.312 19.8577C121.312 18.0869 121.875 16.7171 123 15.7483C124.135 14.7796 125.766 14.2848 127.891 14.2639H129.234V12.9046C129.234 12.1442 129.104 11.6077 128.844 11.2952C128.583 10.9827 128.203 10.8264 127.703 10.8264C126.599 10.8264 126.047 11.4723 126.047 12.7639H121.625C121.625 11.2014 122.208 9.91499 123.375 8.90457C124.552 7.88374 126.036 7.37332 127.828 7.37332C129.682 7.37332 131.115 7.8577 132.125 8.82645C133.146 9.78478 133.656 11.1598 133.656 12.9514V20.9046C133.677 22.3629 133.885 23.5035 134.281 24.3264V24.5921H129.828ZM127.219 21.4358C127.708 21.4358 128.125 21.3369 128.469 21.1389C128.812 20.941 129.068 20.7067 129.234 20.4358V16.9202H128.172C127.422 16.9202 126.828 17.1598 126.391 17.6389C125.964 18.1181 125.75 18.7587 125.75 19.5608C125.75 20.8108 126.24 21.4358 127.219 21.4358ZM144.344 20.0608C144.344 19.6858 144.161 19.3421 143.797 19.0296C143.443 18.7067 142.646 18.2744 141.406 17.7327C139.583 16.9931 138.328 16.2275 137.641 15.4358C136.964 14.6442 136.625 13.6598 136.625 12.4827C136.625 11.0035 137.156 9.78478 138.219 8.82645C139.292 7.8577 140.708 7.37332 142.469 7.37332C144.323 7.37332 145.807 7.85249 146.922 8.81082C148.036 9.76915 148.594 11.0556 148.594 12.6702H144.172C144.172 11.2952 143.599 10.6077 142.453 10.6077C141.984 10.6077 141.599 10.7535 141.297 11.0452C140.995 11.3369 140.844 11.7431 140.844 12.2639C140.844 12.6389 141.01 12.9723 141.344 13.2639C141.677 13.5452 142.464 13.9514 143.703 14.4827C145.505 15.1494 146.776 15.8942 147.516 16.7171C148.266 17.5296 148.641 18.5869 148.641 19.8889C148.641 21.3994 148.073 22.6129 146.938 23.5296C145.802 24.4462 144.312 24.9046 142.469 24.9046C141.229 24.9046 140.135 24.665 139.188 24.1858C138.24 23.6962 137.495 23.0192 136.953 22.1546C136.422 21.29 136.156 20.3577 136.156 19.3577H140.359C140.38 20.1285 140.557 20.7067 140.891 21.0921C141.234 21.4775 141.792 21.6702 142.562 21.6702C143.75 21.6702 144.344 21.1337 144.344 20.0608ZM155.703 9.1702C156.661 7.97228 157.839 7.37332 159.234 7.37332C160.776 7.37332 161.948 7.91499 162.75 8.99832C163.552 10.0817 163.958 11.6962 163.969 13.8421V24.5921H159.531V13.8889C159.531 12.8994 159.375 12.1858 159.062 11.7483C158.76 11.3004 158.266 11.0764 157.578 11.0764C156.776 11.0764 156.151 11.4462 155.703 12.1858V24.5921H151.281V0.592072H155.703V9.1702ZM175.484 11.9514L174.016 11.8264C172.807 11.8264 171.99 12.3577 171.562 13.4202V24.5921H167.125V7.68582H171.297L171.422 9.51395C172.12 8.08686 173.083 7.37332 174.312 7.37332C174.812 7.37332 175.219 7.44103 175.531 7.57645L175.484 11.9514Z" fill="#FF7500"/>
</svg>
